<svg xmlns="http://www.w3.org/2000/svg" xmlns:xlink="http://www.w3.org/1999/xlink" id="Groupe_29" data-name="Groupe 29" width="267.313" height="56.937" viewBox="0 0 267.313 56.937"><defs><clipPath id="clip-path"><rect id="Rectangle_4" data-name="Rectangle 4" width="267.313" height="56.937" fill="none"></rect></clipPath></defs><g id="Groupe_1" data-name="Groupe 1" clip-path="url(#clip-path)"><path id="Trac&#xE9;_1" data-name="Trac&#xE9; 1" d="M3.539.064A3.374,3.374,0,0,0,.166,3.437V28.525a3.373,3.373,0,0,0,6.747,0V3.437A3.374,3.374,0,0,0,3.539.064" transform="translate(-0.111 -0.043)" fill="#e81a3d"></path><path id="Trac&#xE9;_2" data-name="Trac&#xE9; 2" d="M688.433,15.17c-3.01-2.756-7.358-2.667-8.392-2.6H655.636a3.373,3.373,0,1,0,0,6.747h24.525c.082,0,.191,0,.272-.011a5.473,5.473,0,0,1,3.452.852c.143.133.523.486.523,1.609,0,1.475-.238,2.524-.621,2.738-.69.385-2.485.385-4.069.385H647.462c-.093,0-.148,0-.241.009a7.084,7.084,0,0,1-4.756-1.725c-1.67-1.549-2.547-4.151-2.606-7.734-.047-2.849.658-4.922,2.156-6.339,2.8-2.653,7.6-2.342,7.636-2.34.091.008.184.011.275.011h38.08a3.373,3.373,0,1,0,0-6.747H650.032c-1.181-.067-7.948-.234-12.606,4.129-2.94,2.754-4.391,6.589-4.312,11.4.091,5.563,1.732,9.827,4.878,12.674a13.676,13.676,0,0,0,9.047,3.425c.223,0,.4-.007.53-.014h32.15c4.278,0,11.437,0,11.437-9.869a8.606,8.606,0,0,0-2.722-6.593" transform="translate(-424.067 0)" fill="#e81a3d"></path><path id="Trac&#xE9;_3" data-name="Trac&#xE9; 3" d="M296.821.064H247.766a3.373,3.373,0,0,0,0,6.747h21.267V28.525a3.373,3.373,0,1,0,6.747,0V6.811h21.042a3.373,3.373,0,1,0,0-6.747" transform="translate(-163.698 -0.043)" fill="#e81a3d"></path><path id="Trac&#xE9;_4" data-name="Trac&#xE9; 4" d="M60.117,6.757c.092.007.183.011.275.011h38.08a3.373,3.373,0,0,0,0-6.747H60.5C59.314-.045,52.551-.214,47.892,4.15,44.952,6.9,43.5,10.739,43.58,15.546c.091,5.563,1.732,9.827,4.877,12.674a13.677,13.677,0,0,0,9.048,3.425c.223,0,.4-.007.53-.014H98.472a3.373,3.373,0,0,0,0-6.747H57.929c-.094,0-.148,0-.241.009a7.092,7.092,0,0,1-4.756-1.725c-1.671-1.549-2.547-4.151-2.606-7.734-.047-2.849.659-4.922,2.156-6.339,2.8-2.652,7.605-2.341,7.636-2.34" transform="translate(-29.188 0)" fill="#e81a3d"></path><path id="Trac&#xE9;_5" data-name="Trac&#xE9; 5" d="M448.165,6.757c.091.007.183.011.275.011h38.08a3.373,3.373,0,0,0,0-6.747H448.547c-1.18-.067-7.948-.234-12.606,4.129-2.941,2.755-4.391,6.589-4.313,11.4.091,5.563,1.732,9.827,4.878,12.674a13.677,13.677,0,0,0,9.048,3.426c.223,0,.4-.007.53-.014h40.437a3.373,3.373,0,0,0,0-6.747H445.977c-.093,0-.148,0-.242.009a7.086,7.086,0,0,1-4.756-1.725c-1.67-1.549-2.547-4.151-2.606-7.733-.047-2.849.658-4.922,2.155-6.339,2.8-2.653,7.606-2.34,7.637-2.34" transform="translate(-289.109 0)" fill="#e81a3d"></path><path id="Trac&#xE9;_6" data-name="Trac&#xE9; 6" d="M8.135,141.346h-1.4v-4.892H1.4v4.892H0V130.762H1.4v4.551H6.732v-4.551h1.4Z" transform="translate(0 -87.586)" fill="#fff"></path><path id="Trac&#xE9;_7" data-name="Trac&#xE9; 7" d="M36.037,131.1a.8.8,0,0,1,.2-.553.75.75,0,0,1,.592-.225.762.762,0,0,1,.6.225.8.8,0,0,1,.2.553.769.769,0,0,1-.2.545.776.776,0,0,1-.6.218.764.764,0,0,1-.592-.218.775.775,0,0,1-.2-.545m1.454,9.952H36.146v-7.866h1.345Z" transform="translate(-24.138 -87.291)" fill="#fff"></path><path id="Trac&#xE9;_8" data-name="Trac&#xE9; 8" d="M50.5,142.569a4.623,4.623,0,0,1,.851-2.926,2.933,2.933,0,0,1,4.5-.069l.065-.873h1.229v7.677a3.2,3.2,0,0,1-.905,2.406,3.339,3.339,0,0,1-2.431.88,4.049,4.049,0,0,1-1.665-.363,2.866,2.866,0,0,1-1.243-1l.7-.807a2.629,2.629,0,0,0,2.115,1.068,2.061,2.061,0,0,0,1.53-.552,2.113,2.113,0,0,0,.549-1.556v-.676a2.765,2.765,0,0,1-2.2.931,2.687,2.687,0,0,1-2.235-1.112,4.859,4.859,0,0,1-.855-3.031m1.352.153a3.526,3.526,0,0,0,.545,2.09,1.772,1.772,0,0,0,1.527.759,1.97,1.97,0,0,0,1.869-1.156v-3.591a1.993,1.993,0,0,0-1.854-1.127,1.787,1.787,0,0,0-1.534.763,3.839,3.839,0,0,0-.553,2.261" transform="translate(-33.824 -92.807)" fill="#fff"></path><path id="Trac&#xE9;_9" data-name="Trac&#xE9; 9" d="M82.618,133.252a2.86,2.86,0,0,1,2.326-1.1q2.493,0,2.515,2.814v5.2H86.115V134.96a1.812,1.812,0,0,0-.389-1.258,1.56,1.56,0,0,0-1.188-.407,1.942,1.942,0,0,0-1.149.349,2.371,2.371,0,0,0-.771.916v5.6H81.273V129h1.345Z" transform="translate(-54.438 -86.406)" fill="#fff"></path><rect id="Rectangle_1" data-name="Rectangle 1" width="3.548" height="1.098" transform="translate(35.776 48.715)" fill="#fff"></rect><path id="Trac&#xE9;_10" data-name="Trac&#xE9; 10" d="M130.137,146.712a3.437,3.437,0,0,1-2.6-1.05,3.9,3.9,0,0,1-1-2.81V142.6a4.722,4.722,0,0,1,.447-2.09,3.49,3.49,0,0,1,1.25-1.44,3.145,3.145,0,0,1,1.741-.52,2.946,2.946,0,0,1,2.384,1.011,4.374,4.374,0,0,1,.851,2.893v.56h-5.329a2.8,2.8,0,0,0,.68,1.879,2.137,2.137,0,0,0,1.654.716,2.342,2.342,0,0,0,1.207-.291,3.038,3.038,0,0,0,.865-.771l.821.64a3.3,3.3,0,0,1-2.966,1.52m-.167-7.051a1.793,1.793,0,0,0-1.367.592,2.88,2.88,0,0,0-.684,1.661h3.94v-.1a2.563,2.563,0,0,0-.552-1.589,1.69,1.69,0,0,0-1.338-.563" transform="translate(-84.752 -92.806)" fill="#fff"></path><path id="Trac&#xE9;_11" data-name="Trac&#xE9; 11" d="M157.234,138.7l.044.989a2.866,2.866,0,0,1,2.356-1.134q2.493,0,2.515,2.814v5.2H160.8v-5.205a1.81,1.81,0,0,0-.389-1.257,1.558,1.558,0,0,0-1.188-.407,1.943,1.943,0,0,0-1.149.349,2.372,2.372,0,0,0-.771.916v5.6h-1.345V138.7Z" transform="translate(-104.466 -92.806)" fill="#fff"></path><path id="Trac&#xE9;_12" data-name="Trac&#xE9; 12" d="M184.361,136.168a4.608,4.608,0,0,1,.857-2.912,2.919,2.919,0,0,1,4.434-.157V129H191v11.166h-1.236l-.065-.843a2.739,2.739,0,0,1-2.246.989,2.686,2.686,0,0,1-2.228-1.12,4.66,4.66,0,0,1-.861-2.922Zm1.344.153a3.488,3.488,0,0,0,.553,2.094,1.785,1.785,0,0,0,1.526.756,1.962,1.962,0,0,0,1.868-1.148v-3.613A1.977,1.977,0,0,0,187.8,133.3a1.794,1.794,0,0,0-1.541.763,3.839,3.839,0,0,0-.553,2.261" transform="translate(-123.488 -86.406)" fill="#fff"></path><path id="Trac&#xE9;_13" data-name="Trac&#xE9; 13" d="M236.263,131.9h-3.4v9.443h-1.389V131.9h-3.395v-1.141h8.185Z" transform="translate(-152.77 -87.586)" fill="#fff"></path><path id="Trac&#xE9;_14" data-name="Trac&#xE9; 14" d="M264.066,146.712a3.437,3.437,0,0,1-2.6-1.05,3.9,3.9,0,0,1-1-2.81V142.6a4.722,4.722,0,0,1,.447-2.09,3.489,3.489,0,0,1,1.25-1.44,3.145,3.145,0,0,1,1.741-.52,2.946,2.946,0,0,1,2.384,1.011,4.374,4.374,0,0,1,.851,2.893v.56H261.8a2.8,2.8,0,0,0,.68,1.879,2.137,2.137,0,0,0,1.654.716,2.342,2.342,0,0,0,1.207-.291,3.038,3.038,0,0,0,.865-.771l.821.64a3.3,3.3,0,0,1-2.966,1.52m-.167-7.051a1.793,1.793,0,0,0-1.367.592,2.88,2.88,0,0,0-.684,1.661h3.94v-.1a2.563,2.563,0,0,0-.552-1.589,1.69,1.69,0,0,0-1.338-.563" transform="translate(-174.46 -92.806)" fill="#fff"></path><path id="Trac&#xE9;_15" data-name="Trac&#xE9; 15" d="M292.338,145.614a1.939,1.939,0,0,0,1.258-.436,1.534,1.534,0,0,0,.6-1.091h1.272a2.437,2.437,0,0,1-.465,1.287,3.067,3.067,0,0,1-1.145.974,3.307,3.307,0,0,1-1.516.364,3.241,3.241,0,0,1-2.555-1.072,4.27,4.27,0,0,1-.949-2.933v-.225a4.733,4.733,0,0,1,.422-2.043,3.209,3.209,0,0,1,1.21-1.388,3.439,3.439,0,0,1,1.865-.494,3.155,3.155,0,0,1,2.2.792,2.83,2.83,0,0,1,.934,2.057h-1.272a1.854,1.854,0,0,0-.578-1.254,1.8,1.8,0,0,0-1.283-.491,1.882,1.882,0,0,0-1.588.738,3.464,3.464,0,0,0-.563,2.134v.254a3.4,3.4,0,0,0,.56,2.094,1.892,1.892,0,0,0,1.6.734" transform="translate(-193.465 -92.806)" fill="#fff"></path><path id="Trac&#xE9;_16" data-name="Trac&#xE9; 16" d="M319.348,133.252a2.86,2.86,0,0,1,2.327-1.1q2.493,0,2.515,2.814v5.2h-1.345V134.96a1.811,1.811,0,0,0-.389-1.258,1.56,1.56,0,0,0-1.188-.407,1.942,1.942,0,0,0-1.149.349,2.371,2.371,0,0,0-.771.916v5.6H318V129h1.345Z" transform="translate(-213.003 -86.406)" fill="#fff"></path><path id="Trac&#xE9;_17" data-name="Trac&#xE9; 17" d="M348.618,138.7l.044.989a2.866,2.866,0,0,1,2.356-1.134q2.493,0,2.515,2.814v5.2h-1.345v-5.205a1.809,1.809,0,0,0-.389-1.257,1.558,1.558,0,0,0-1.188-.407,1.943,1.943,0,0,0-1.149.349,2.375,2.375,0,0,0-.771.916v5.6h-1.345V138.7Z" transform="translate(-232.658 -92.806)" fill="#fff"></path><path id="Trac&#xE9;_18" data-name="Trac&#xE9; 18" d="M375.655,142.561a4.642,4.642,0,0,1,.454-2.079,3.387,3.387,0,0,1,1.265-1.425,3.443,3.443,0,0,1,1.85-.5,3.317,3.317,0,0,1,2.6,1.112,4.278,4.278,0,0,1,.993,2.959v.094a4.687,4.687,0,0,1-.44,2.061,3.341,3.341,0,0,1-1.258,1.421,3.482,3.482,0,0,1-1.879.509,3.31,3.31,0,0,1-2.592-1.112,4.259,4.259,0,0,1-.992-2.944Zm1.352.16a3.366,3.366,0,0,0,.607,2.1,2.057,2.057,0,0,0,3.253-.011,3.681,3.681,0,0,0,.6-2.25,3.359,3.359,0,0,0-.614-2.1,1.953,1.953,0,0,0-1.632-.8,1.931,1.931,0,0,0-1.607.792,3.651,3.651,0,0,0-.611,2.268" transform="translate(-251.619 -92.807)" fill="#fff"></path><rect id="Rectangle_2" data-name="Rectangle 2" width="1.345" height="11.166" transform="translate(134.488 42.594)" fill="#fff"></rect><path id="Trac&#xE9;_19" data-name="Trac&#xE9; 19" d="M421.332,142.561a4.642,4.642,0,0,1,.454-2.079,3.386,3.386,0,0,1,1.265-1.425,3.442,3.442,0,0,1,1.85-.5,3.317,3.317,0,0,1,2.6,1.112,4.278,4.278,0,0,1,.993,2.959v.094a4.686,4.686,0,0,1-.44,2.061A3.341,3.341,0,0,1,426.8,146.2a3.482,3.482,0,0,1-1.879.509,3.31,3.31,0,0,1-2.592-1.112,4.259,4.259,0,0,1-.992-2.944Zm1.352.16a3.367,3.367,0,0,0,.607,2.1,2.057,2.057,0,0,0,3.253-.011,3.68,3.68,0,0,0,.6-2.25,3.359,3.359,0,0,0-.614-2.1,1.953,1.953,0,0,0-1.632-.8,1.931,1.931,0,0,0-1.607.792,3.651,3.651,0,0,0-.611,2.268" transform="translate(-282.215 -92.807)" fill="#fff"></path><path id="Trac&#xE9;_20" data-name="Trac&#xE9; 20" d="M451.666,142.569a4.621,4.621,0,0,1,.851-2.926,2.933,2.933,0,0,1,4.5-.069l.065-.873h1.229v7.677a3.2,3.2,0,0,1-.906,2.406,3.339,3.339,0,0,1-2.431.88,4.051,4.051,0,0,1-1.665-.363,2.871,2.871,0,0,1-1.243-1l.7-.807a2.631,2.631,0,0,0,2.116,1.068,2.06,2.06,0,0,0,1.53-.552,2.111,2.111,0,0,0,.549-1.556v-.676a2.765,2.765,0,0,1-2.2.931,2.687,2.687,0,0,1-2.235-1.112,4.859,4.859,0,0,1-.854-3.031m1.352.153a3.527,3.527,0,0,0,.545,2.09,1.772,1.772,0,0,0,1.526.759,1.97,1.97,0,0,0,1.869-1.156v-3.591A1.993,1.993,0,0,0,455.1,139.7a1.788,1.788,0,0,0-1.534.763,3.839,3.839,0,0,0-.552,2.261" transform="translate(-302.533 -92.807)" fill="#fff"></path><path id="Trac&#xE9;_21" data-name="Trac&#xE9; 21" d="M483.276,144.891l1.832-5.9h1.44l-3.163,9.08q-.734,1.963-2.333,1.963l-.254-.022-.5-.094v-1.09l.364.029a1.793,1.793,0,0,0,1.065-.276,2,2,0,0,0,.629-1.011l.3-.8-2.806-7.779h1.469Z" transform="translate(-321.407 -93.101)" fill="#fff"></path><path id="Trac&#xE9;_22" data-name="Trac&#xE9; 22" d="M531.643,137.692a3.894,3.894,0,0,1-1.24,2.592,4.061,4.061,0,0,1-2.773.913,3.73,3.73,0,0,1-3.006-1.345,5.411,5.411,0,0,1-1.13-3.6v-1.018a6.034,6.034,0,0,1,.527-2.6,3.936,3.936,0,0,1,1.494-1.719,4.157,4.157,0,0,1,2.239-.6,3.824,3.824,0,0,1,2.7.941,3.944,3.944,0,0,1,1.185,2.606h-1.4a3.041,3.041,0,0,0-.789-1.838,2.388,2.388,0,0,0-1.7-.569,2.5,2.5,0,0,0-2.1.99,4.54,4.54,0,0,0-.76,2.815v1.026a4.67,4.67,0,0,0,.72,2.743,2.326,2.326,0,0,0,2.013,1.018,2.685,2.685,0,0,0,1.785-.527,2.925,2.925,0,0,0,.825-1.835Z" transform="translate(-350.644 -87.291)" fill="#fff"></path><path id="Trac&#xE9;_23" data-name="Trac&#xE9; 23" d="M556.735,142.561a4.647,4.647,0,0,1,.454-2.079,3.389,3.389,0,0,1,1.265-1.425,3.442,3.442,0,0,1,1.85-.5,3.317,3.317,0,0,1,2.6,1.112,4.278,4.278,0,0,1,.992,2.959v.094a4.686,4.686,0,0,1-.44,2.061A3.338,3.338,0,0,1,562.2,146.2a3.482,3.482,0,0,1-1.879.509,3.31,3.31,0,0,1-2.592-1.112,4.258,4.258,0,0,1-.992-2.944Zm1.352.16a3.364,3.364,0,0,0,.607,2.1,2.057,2.057,0,0,0,3.253-.011,3.679,3.679,0,0,0,.6-2.25,3.359,3.359,0,0,0-.615-2.1,1.953,1.953,0,0,0-1.632-.8,1.93,1.93,0,0,0-1.607.792,3.649,3.649,0,0,0-.611,2.268" transform="translate(-372.91 -92.807)" fill="#fff"></path><path id="Trac&#xE9;_24" data-name="Trac&#xE9; 24" d="M589.312,138.7l.043.989a2.867,2.867,0,0,1,2.356-1.134q2.493,0,2.515,2.814v5.2h-1.345v-5.205a1.806,1.806,0,0,0-.39-1.257,1.556,1.556,0,0,0-1.188-.407,1.945,1.945,0,0,0-1.149.349,2.372,2.372,0,0,0-.77.916v5.6h-1.345V138.7Z" transform="translate(-393.878 -92.806)" fill="#fff"></path><path id="Trac&#xE9;_25" data-name="Trac&#xE9; 25" d="M621.344,144.48a.991.991,0,0,0-.411-.847,3.954,3.954,0,0,0-1.432-.52,6.782,6.782,0,0,1-1.621-.523,2.307,2.307,0,0,1-.887-.727,1.737,1.737,0,0,1-.287-1,2.04,2.04,0,0,1,.818-1.636,3.194,3.194,0,0,1,2.09-.669,3.286,3.286,0,0,1,2.17.69,2.193,2.193,0,0,1,.832,1.767h-1.352a1.213,1.213,0,0,0-.469-.952,1.756,1.756,0,0,0-1.181-.4,1.839,1.839,0,0,0-1.149.32,1.008,1.008,0,0,0-.414.836.816.816,0,0,0,.385.734,4.748,4.748,0,0,0,1.392.473,7.266,7.266,0,0,1,1.633.538,2.385,2.385,0,0,1,.926.753,1.851,1.851,0,0,1,.3,1.072,2.013,2.013,0,0,1-.843,1.69,3.535,3.535,0,0,1-2.188.636,3.966,3.966,0,0,1-1.672-.334,2.717,2.717,0,0,1-1.138-.934,2.251,2.251,0,0,1-.411-1.3h1.345a1.391,1.391,0,0,0,.542,1.072,2.1,2.1,0,0,0,1.334.4,2.169,2.169,0,0,0,1.225-.309.949.949,0,0,0,.462-.825" transform="translate(-412.899 -92.807)" fill="#fff"></path><path id="Trac&#xE9;_26" data-name="Trac&#xE9; 26" d="M649.983,146.083a2.856,2.856,0,0,1-2.3.923,2.445,2.445,0,0,1-1.916-.731,3.16,3.16,0,0,1-.665-2.163v-5.118h1.345v5.082q0,1.788,1.454,1.788a2.013,2.013,0,0,0,2.05-1.149v-5.721h1.345v7.866h-1.279Z" transform="translate(-432.097 -93.101)" fill="#fff"></path><rect id="Rectangle_3" data-name="Rectangle 3" width="1.345" height="11.166" transform="translate(222.843 42.594)" fill="#fff"></rect><path id="Trac&#xE9;_27" data-name="Trac&#xE9; 27" d="M689.9,133.227v1.9h1.468v1.039H689.9v4.884a1.093,1.093,0,0,0,.2.71.827.827,0,0,0,.669.236,3.242,3.242,0,0,0,.64-.088V143a3.922,3.922,0,0,1-1.033.145,1.674,1.674,0,0,1-1.359-.545,2.344,2.344,0,0,1-.458-1.549v-4.878h-1.432v-1.039h1.432v-1.9Z" transform="translate(-460.242 -89.237)" fill="#fff"></path><path id="Trac&#xE9;_28" data-name="Trac&#xE9; 28" d="M713.642,146.566a2.812,2.812,0,0,1-.189-.829,3,3,0,0,1-2.239.974,2.777,2.777,0,0,1-1.909-.658,2.126,2.126,0,0,1-.745-1.668,2.223,2.223,0,0,1,.934-1.908,4.4,4.4,0,0,1,2.628-.68h1.308v-.618a1.51,1.51,0,0,0-.421-1.123,1.7,1.7,0,0,0-1.243-.418,1.961,1.961,0,0,0-1.206.364,1.071,1.071,0,0,0-.487.88H708.72a1.856,1.856,0,0,1,.418-1.137,2.854,2.854,0,0,1,1.134-.869,3.813,3.813,0,0,1,1.574-.32,3.107,3.107,0,0,1,2.129.68,2.451,2.451,0,0,1,.8,1.872v3.62a4.422,4.422,0,0,0,.276,1.723v.117Zm-2.232-1.025a2.367,2.367,0,0,0,1.2-.327,1.976,1.976,0,0,0,.821-.851V142.75h-1.054q-2.471,0-2.471,1.447a1.225,1.225,0,0,0,.422.989,1.618,1.618,0,0,0,1.083.356" transform="translate(-474.604 -92.806)" fill="#fff"></path><path id="Trac&#xE9;_29" data-name="Trac&#xE9; 29" d="M739.55,138.7l.043.989a2.866,2.866,0,0,1,2.356-1.134q2.493,0,2.515,2.814v5.2H743.12v-5.205a1.808,1.808,0,0,0-.389-1.257,1.558,1.558,0,0,0-1.189-.407,1.943,1.943,0,0,0-1.148.349,2.369,2.369,0,0,0-.77.916v5.6h-1.345V138.7Z" transform="translate(-494.51 -92.806)" fill="#fff"></path><path id="Trac&#xE9;_30" data-name="Trac&#xE9; 30" d="M767.558,133.227v1.9h1.468v1.039h-1.468v4.884a1.092,1.092,0,0,0,.2.71.827.827,0,0,0,.669.236,3.24,3.24,0,0,0,.64-.088V143a3.921,3.921,0,0,1-1.033.145,1.674,1.674,0,0,1-1.359-.545,2.344,2.344,0,0,1-.458-1.549v-4.878h-1.432v-1.039h1.432v-1.9Z" transform="translate(-512.262 -89.237)" fill="#fff"></path><path id="Trac&#xE9;_31" data-name="Trac&#xE9; 31" d="M790.82,144.48a.991.991,0,0,0-.411-.847,3.953,3.953,0,0,0-1.432-.52,6.781,6.781,0,0,1-1.621-.523,2.306,2.306,0,0,1-.887-.727,1.736,1.736,0,0,1-.287-1,2.039,2.039,0,0,1,.818-1.636,3.194,3.194,0,0,1,2.09-.669,3.286,3.286,0,0,1,2.17.69,2.194,2.194,0,0,1,.833,1.767H790.74a1.213,1.213,0,0,0-.469-.952,1.756,1.756,0,0,0-1.181-.4,1.838,1.838,0,0,0-1.149.32,1.008,1.008,0,0,0-.414.836.816.816,0,0,0,.385.734,4.747,4.747,0,0,0,1.392.473,7.277,7.277,0,0,1,1.633.538,2.386,2.386,0,0,1,.926.753,1.85,1.85,0,0,1,.3,1.072,2.013,2.013,0,0,1-.843,1.69,3.535,3.535,0,0,1-2.187.636,3.968,3.968,0,0,1-1.672-.334,2.717,2.717,0,0,1-1.137-.934,2.251,2.251,0,0,1-.411-1.3h1.344a1.391,1.391,0,0,0,.542,1.072,2.1,2.1,0,0,0,1.334.4,2.169,2.169,0,0,0,1.225-.309.949.949,0,0,0,.461-.825" transform="translate(-526.417 -92.807)" fill="#fff"></path></g></svg>