<svg xmlns="http://www.w3.org/2000/svg" xmlns:xlink="http://www.w3.org/1999/xlink" id="Calque_1" x="0px" y="0px" width="298.5px" height="134.5px" viewBox="0 0 298.5 134.5" style="enable-background:new 0 0 298.5 134.5;" xml:space="preserve"><style type="text/css">	.st0{fill:#DA002F;}</style><g>	<path d="M213.1,56.2c0,0.9-0.2,1.7-0.6,2.3s-1,0.9-1.7,0.9c-0.8,0-1.4-0.3-1.8-0.8l-0.1,0.7h-1v-8.7h1v3.2c0.4-0.5,1-0.8,1.8-0.8  s1.3,0.3,1.8,0.8C212.9,54.4,213.1,55.2,213.1,56.2L213.1,56.2z M212.1,56.1c0-0.7-0.1-1.3-0.4-1.7c-0.3-0.4-0.7-0.6-1.2-0.6  c-0.7,0-1.2,0.3-1.5,1v2.7c0.3,0.6,0.8,1,1.5,1c0.5,0,0.9-0.2,1.2-0.6C211.9,57.5,212.1,56.9,212.1,56.1z"></path>	<path d="M216.4,57.7l1.4-4.6h1.1l-2.5,7.1c-0.4,1-1,1.5-1.8,1.5l-0.2,0l-0.4-0.1v-0.8l0.3,0c0.4,0,0.6-0.1,0.8-0.2  c0.2-0.1,0.4-0.4,0.5-0.8l0.2-0.6l-2.2-6.1h1.1L216.4,57.7z"></path>	<path d="M224.1,59.2H223V51h1.1V59.2z"></path>	<path d="M232.2,56.6c-0.1,0.9-0.4,1.5-1,2c-0.5,0.5-1.3,0.7-2.2,0.7c-1,0-1.8-0.3-2.3-1c-0.6-0.7-0.9-1.6-0.9-2.8v-0.8  c0-0.8,0.1-1.4,0.4-2c0.3-0.6,0.7-1,1.2-1.3c0.5-0.3,1.1-0.5,1.7-0.5c0.9,0,1.6,0.2,2.1,0.7s0.8,1.2,0.9,2h-1.1  c-0.1-0.7-0.3-1.1-0.6-1.4s-0.8-0.4-1.3-0.4c-0.7,0-1.2,0.3-1.6,0.8c-0.4,0.5-0.6,1.2-0.6,2.2v0.8c0,0.9,0.2,1.6,0.6,2.1  s0.9,0.8,1.6,0.8c0.6,0,1.1-0.1,1.4-0.4c0.3-0.3,0.5-0.8,0.6-1.4H232.2z"></path>	<path d="M239.2,51.9h-2.7v7.4h-1.1v-7.4h-2.6V51h6.4V51.9z"></path>	<path d="M246.5,56.6c-0.1,0.9-0.4,1.5-1,2c-0.5,0.5-1.3,0.7-2.2,0.7c-1,0-1.8-0.3-2.3-1c-0.6-0.7-0.9-1.6-0.9-2.8v-0.8  c0-0.8,0.1-1.4,0.4-2c0.3-0.6,0.7-1,1.2-1.3c0.5-0.3,1.1-0.5,1.7-0.5c0.9,0,1.6,0.2,2.1,0.7c0.5,0.5,0.8,1.2,0.9,2h-1.1  c-0.1-0.7-0.3-1.1-0.6-1.4s-0.8-0.4-1.3-0.4c-0.7,0-1.2,0.3-1.6,0.8c-0.4,0.5-0.6,1.2-0.6,2.2v0.8c0,0.9,0.2,1.6,0.6,2.1  s0.9,0.8,1.6,0.8c0.6,0,1.1-0.1,1.4-0.4c0.3-0.3,0.5-0.8,0.6-1.4H246.5z"></path>	<path d="M254.1,58.1c-0.3,0.4-0.7,0.7-1.2,0.9c-0.5,0.2-1.1,0.3-1.7,0.3c-0.7,0-1.3-0.2-1.8-0.5c-0.5-0.3-0.9-0.8-1.2-1.3  c-0.3-0.6-0.4-1.3-0.4-2v-0.7c0-1.2,0.3-2.2,0.9-2.9c0.6-0.7,1.4-1,2.4-1c0.9,0,1.6,0.2,2.1,0.7s0.8,1.1,1,1.9H253  c-0.2-1.1-0.9-1.6-1.9-1.6c-0.7,0-1.3,0.3-1.7,0.8s-0.6,1.3-0.6,2.2v0.7c0,0.9,0.2,1.7,0.6,2.2c0.4,0.5,1,0.8,1.7,0.8  c0.4,0,0.8,0,1.1-0.1c0.3-0.1,0.6-0.2,0.8-0.5V56h-1.9v-0.9h3V58.1z"></path></g><g>	<path class="st0" d="M137,97.8l4.4-12c-1.5,3-4.6,5-8.2,5H51.9c-2.1,0-3.7,1.7-3.7,3.7s1.7,3.7,3.7,3.7h81.3  C134.5,98.3,135.8,98.1,137,97.8z"></path>	<path class="st0" d="M133.2,46.3c5.1,0,9.3,4.2,9.3,9.3c0,5.1-4.2,9.3-9.3,9.3h-22.3l2.7,7.4h19.6c5.1,0,9.3,4.2,9.3,9.3  c0,0.7-0.1,1.4-0.2,2l4.4-12c-0.8-1.1-1.8-2.2-2.9-3c3.8-3.1,6.2-7.8,6.2-13c0-9.2-7.5-16.7-16.7-16.7h-31.8l2.7,7.4H133.2z"></path></g><g>	<g>		<path class="st0" d="M164.1,51.4h-7v4.4h8.3v3.4h-12.7V40.7h12.8v3.4h-8.3v3.9h7V51.4z M161.5,39.8l-3.5,0l-3.6-4h4.5L161.5,39.8z   "></path>		<path class="st0" d="M173.1,40.7l4.1,12.9l4.1-12.9h5.9v18.5h-4.5v-4.3l0.4-8.8l-4.5,13.2h-2.9l-4.5-13.2l0.4,8.8v4.3h-4.5V40.7   H173.1z"></path>		<path class="st0" d="M201.5,51.4h-7v4.4h8.3v3.4H190V40.7h12.8v3.4h-8.3v3.9h7V51.4z"></path>	</g></g><g>	<g>		<path class="st0" d="M168,89.2l6.7-24.3h9l-11.2,33.4h-8.8l-11.2-33.4h8.9L168,89.2z"></path>		<path class="st0" d="M214.1,82.3c0,3.3-0.6,6.1-1.8,8.7c-1.2,2.5-2.9,4.4-5.2,5.8c-2.2,1.4-4.8,2-7.6,2s-5.4-0.7-7.6-2   c-2.2-1.3-3.9-3.2-5.2-5.6s-1.9-5.2-1.9-8.4v-1.9c0-3.3,0.6-6.2,1.8-8.7c1.2-2.5,2.9-4.4,5.2-5.8c2.2-1.4,4.8-2,7.7-2   c2.8,0,5.4,0.7,7.6,2c2.2,1.3,3.9,3.3,5.2,5.7s1.9,5.3,1.9,8.5V82.3z M205.9,80.9c0-3.3-0.6-5.8-1.7-7.6c-1.1-1.7-2.7-2.6-4.8-2.6   c-4,0-6.2,3-6.4,9.1l0,2.5c0,3.3,0.5,5.8,1.6,7.5c1.1,1.8,2.7,2.6,4.8,2.6c2,0,3.6-0.9,4.7-2.6c1.1-1.7,1.7-4.2,1.7-7.5V80.9z"></path>		<path class="st0" d="M226.8,98.3h-8V64.9h8V98.3z"></path>		<path class="st0" d="M253.2,84.1h-12.7v8h15v6.2h-23V64.9h23.1v6.2h-15v7h12.7V84.1z"></path>	</g></g><g>	<g>		<path class="st0" d="M56.3,66.1h14v6.2H48.2V38.9h8.1V66.1z"></path>		<path class="st0" d="M93.1,66.1H82l-1.9,6.2h-8.6l12.3-33.4h7.6l12.3,33.4H95L93.1,66.1z M84,59.8h7.2l-3.6-11.6L84,59.8z"></path>	</g></g></svg>